<svg version="1.0" xmlns="http://www.w3.org/2000/svg"
 width="100" height="100" viewBox="0 0 500.000000 500.000000"
 preserveAspectRatio="xMidYMid meet">

<g transform="translate(0.000000,500.000000) scale(0.100000,-0.100000)"
fill="#E8EDE7" stroke="none">


<path d="M2205 3336 c-11 -11 -19 -30 -18 -41 1 -15 1 -16 -3 -2 -7 21 -21 22
-40 3 -22 -22 -17 -32 6 -11 11 10 20 13 20 7 0 -6 -10 -17 -22 -23 -13 -7
-27 -17 -31 -23 -5 -6 -6 2 -3 19 3 17 3 24 0 17 -3 -6 -11 -9 -16 -6 -7 4 -8
2 -4 -4 3 -6 -2 -16 -13 -22 -16 -8 -23 -6 -35 12 -9 12 -16 18 -16 14 0 -5 7
-18 16 -27 12 -14 21 -16 35 -9 11 7 20 7 24 0 4 -6 18 -4 38 6 30 15 29 13
-13 -27 -51 -50 -80 -103 -80 -146 0 -19 15 -51 41 -87 l41 -57 38 35 c22 20
63 47 92 62 l53 26 -61 -64 c-76 -79 -94 -105 -94 -140 0 -28 13 -37 25 -18 6
10 118 70 131 70 3 0 -23 -24 -58 -52 -87 -73 -97 -87 -98 -132 0 -37 1 -38
18 -23 16 15 305 157 309 153 2 -1 -33 -33 -76 -71 -68 -59 -127 -102 -208
-151 -46 -28 146 -45 287 -24 35 5 66 8 68 6 4 -5 -168 -67 -293 -106 -55 -17
-107 -34 -115 -36 -38 -13 41 38 82 53 l47 17 -66 19 c-64 17 -67 17 -85 0
-10 -10 -24 -45 -30 -77 -12 -53 -11 -59 7 -72 35 -26 271 -13 497 26 62 11
114 18 116 15 2 -2 -49 -20 -114 -40 -227 -70 -517 -167 -570 -190 -45 -20
-54 -29 -63 -62 -6 -21 -11 -51 -11 -67 0 -27 1 -28 18 -13 55 50 230 102 395
117 109 11 149 8 85 -5 -103 -21 -396 -123 -489 -170 -52 -27 -69 -49 -69 -89
0 -25 13 -35 24 -17 12 19 142 62 258 85 137 28 249 42 383 50 l90 6 -90 -29
c-49 -16 -131 -41 -182 -55 -51 -14 -124 -38 -164 -53 l-72 -28 54 -5 c51 -5
45 -6 -86 -28 -77 -12 -167 -23 -200 -25 -51 -2 -61 -5 -70 -24 -5 -13 -22
-24 -42 -28 -123 -23 -465 -203 -566 -297 -44 -42 -47 -69 -11 -97 57 -45 166
-25 504 89 333 112 459 134 755 135 321 0 438 -22 829 -154 255 -86 377 -108
441 -79 30 13 41 48 26 77 -38 69 -347 245 -543 308 l-87 28 -32 83 c-18 46
-45 103 -59 126 -15 23 -30 59 -34 80 -11 59 -27 86 -55 92 -65 15 -68 16 -43
25 27 10 30 55 7 99 -14 28 -20 30 -73 30 -56 1 -57 1 -30 16 49 26 50 42 11
135 -65 153 -220 364 -349 474 -119 102 -246 230 -265 266 -23 46 -27 87 -10
117 17 31 11 34 -14 8z m-12 -208 c-4 -7 -22 -36 -39 -65 -29 -49 -44 -58 -44
-26 0 7 19 34 41 58 41 44 58 57 42 33z m667 -1387 c149 -23 242 -42 236 -48
-2 -2 -80 6 -172 19 -136 18 -216 22 -409 23 -263 0 -379 -11 -580 -55 -148
-32 -470 -136 -559 -180 -33 -17 -61 -28 -63 -27 -8 9 119 87 202 125 160 72
410 137 631 162 140 16 561 5 714 -19z"/>

<path d="M2476 3275 c-7 -43 -9 -45 -41 -45 -43 0 -55 -17 -18 -26 49 -10 52
-12 59 -49 8 -45 22 -54 30 -18 13 58 16 63 39 63 32 0 56 10 49 21 -3 5 -18
9 -34 9 -32 0 -40 9 -49 53 -10 47 -28 43 -35 -8z"/>


<path d="M2015 3220 c-3 -5 -3 -15 0 -20 3 -6 -1 -13 -9 -16 -9 -3 -16 -11
-16 -16 0 -6 7 -8 15 -4 9 3 15 0 15 -10 0 -8 -4 -12 -10 -9 -15 9 -12 -8 5
-31 14 -19 14 -18 16 4 1 12 2 27 3 34 1 7 17 28 36 47 19 18 28 29 19 22 -9
-6 -19 -7 -23 -3 -4 4 -14 -1 -21 -11 -9 -13 -15 -15 -20 -6 -4 6 -1 15 6 20
9 6 10 9 2 9 -6 0 -15 -4 -18 -10z"/>
<path d="M2956 3169 c-3 -8 -6 -25 -8 -39 -2 -19 -10 -26 -32 -30 -38 -6 -47
-30 -12 -30 18 0 29 -7 35 -22 30 -78 28 -77 36 -30 7 37 12 44 37 49 41 8 44
21 6 31 -27 7 -34 14 -36 38 -4 34 -19 54 -26 33z"/>



<path d="M3024 2750 c-6 -35 -11 -42 -35 -47 -37 -7 -37 -20 0 -28 24 -5 30
-12 35 -47 7 -46 15 -45 25 3 5 25 14 35 41 45 l35 12 -30 11 c-34 14 -45 27
-45 58 0 40 -19 35 -26 -7z"/>
<path d="M1976 2758 c-5 -18 -15 -28 -27 -28 -10 0 -19 -4 -19 -10 0 -5 9 -10
19 -10 12 0 22 -10 26 -27 l8 -28 6 25 c4 16 15 26 29 28 26 4 20 22 -8 22
-13 0 -20 9 -22 28 l-4 27 -8 -27z"/>
<path d="M2032 2338 c-12 -12 -17 -78 -6 -78 3 0 19 10 34 23 15 12 36 27 46
34 18 11 18 12 -4 12 -13 1 -31 5 -41 11 -12 6 -22 5 -29 -2z"/>
<path d="M2363 1514 c-8 -4 -6 -17 8 -47 23 -53 25 -146 3 -190 -20 -40 -71
-95 -104 -111 -71 -37 -165 -24 -228 29 -54 47 -75 95 -76 177 0 37 -1 68 -2
68 -2 0 -14 -4 -28 -10 -22 -8 -26 -16 -26 -53 0 -60 21 -126 58 -179 81 -118
278 -133 396 -30 24 22 76 130 76 160 0 20 5 22 55 22 51 0 55 -2 55 -23 0
-38 59 -145 94 -172 84 -64 185 -75 284 -30 44 20 68 39 92 72 58 81 81 211
41 233 -35 18 -40 12 -34 -37 15 -133 -84 -246 -217 -246 -31 0 -68 7 -85 16
-42 22 -91 75 -109 119 -22 52 -21 145 3 190 19 38 14 48 -24 48 -13 0 -45
-78 -45 -112 0 -15 -8 -18 -54 -18 l-54 0 -7 37 c-13 73 -37 101 -72 87z"/>
<path d="M1262 1013 c3 -17 20 -18 203 -18 171 0 200 2 200 15 0 13 -30 15
-203 18 -190 2 -203 1 -200 -15z"/>
<path d="M1766 1015 c-8 -21 11 -27 75 -23 40 2 54 7 54 18 0 23 -120 27 -129
5z"/>
<path d="M1970 1011 c0 -12 5 -21 10 -21 6 0 10 6 10 14 0 8 -4 18 -10 21 -5
3 -10 -3 -10 -14z"/>
<path d="M2072 1013 c3 -16 15 -18 93 -18 73 0 90 3 90 15 0 12 -18 16 -93 18
-85 3 -93 1 -90 -15z"/>
<path d="M2392 1013 c3 -16 23 -18 231 -21 222 -2 227 -2 227 18 0 19 -6 20
-231 20 -214 0 -230 -1 -227 -17z"/>
<path d="M2945 1019 c-4 -6 -3 -15 2 -20 5 -5 166 -8 389 -7 329 3 379 5 379
18 0 13 -50 15 -382 18 -269 1 -384 -1 -388 -9z"/>
</g>
</svg>
